<?xml version="1.0" standalone="no"?>
<!DOCTYPE svg PUBLIC "-//W3C//DTD SVG 20010904//EN"
 "http://www.w3.org/TR/2001/REC-SVG-20010904/DTD/svg10.dtd">
<svg version="1.0" xmlns="http://www.w3.org/2000/svg"
 width="1069.000000pt" height="1280.000000pt" viewBox="0 0 1069.000000 1280.000000"
 preserveAspectRatio="xMidYMid meet">
<metadata>
Created by potrace 1.15, written by Peter Selinger 2001-2017
</metadata>
<g transform="translate(0.000000,1280.000000) scale(0.100000,-0.100000)"
fill="#000000" stroke="none">
<path d="M1570 12619 c-850 -98 -1551 -178 -1557 -178 -10 -1 -13 -29 -13
-105 l0 -105 226 -553 c124 -304 275 -672 334 -818 59 -146 189 -463 288 -705
384 -941 788 -1930 872 -2135 48 -118 182 -447 298 -730 357 -873 916 -2242
1967 -4817 l1010 -2473 126 0 125 0 16 33 c9 19 543 1219 1188 2668 645 1449
1455 3269 1800 4044 345 776 1035 2326 1534 3446 l906 2037 0 106 c0 58 -2
106 -4 106 -2 0 -467 54 -1033 120 -565 66 -1260 148 -1543 181 -297 34 -545
58 -585 57 l-70 -3 -240 -655 c-133 -360 -623 -1696 -1090 -2967 -467 -1272
-852 -2313 -855 -2313 -3 0 -184 543 -403 1208 -219 664 -537 1628 -707 2142
-170 514 -431 1307 -581 1763 l-273 827 -96 -1 c-52 -1 -790 -82 -1640 -180z"/>
</g>
</svg>
